<svg xmlns="http://www.w3.org/2000/svg" width="18" height="18" viewBox="0 0 18 18" fill="none">
  <path d="M17.3982 12.2168C17.3985 12.2135 17.3985 12.2102 17.3982 12.207L16.2457 6.28875V6.27609C16.0678 5.30441 15.555 4.4258 14.7965 3.79302C14.0379 3.16023 13.0816 2.81328 12.0938 2.8125H5.89854C4.90794 2.81212 3.94893 3.16103 3.19017 3.79788C2.43141 4.43472 1.92149 5.31871 1.7501 6.29437L0.603308 12.207C0.602979 12.2102 0.602979 12.2135 0.603308 12.2168C0.509963 12.7468 0.587985 13.2928 0.826048 13.7755C1.06411 14.2582 1.44982 14.6524 1.92718 14.901C2.40453 15.1495 2.94869 15.2394 3.48063 15.1577C4.01258 15.076 4.50463 14.8268 4.88534 14.4464L4.90995 14.4204L7.70065 11.25H10.3022L13.0943 14.4204C13.1021 14.4295 13.1105 14.438 13.1189 14.4464C13.5934 14.9199 14.236 15.1863 14.9063 15.1875C15.2758 15.1873 15.6407 15.1061 15.9755 14.9498C16.3103 14.7935 16.6068 14.5658 16.8442 14.2827C17.0816 13.9996 17.2541 13.668 17.3497 13.3111C17.4453 12.9542 17.4616 12.5807 17.3974 12.2168H17.3982ZM7.31253 7.875H6.75003V8.4375C6.75003 8.58668 6.69076 8.72976 6.58527 8.83525C6.47978 8.94074 6.33671 9 6.18753 9C6.03834 9 5.89527 8.94074 5.78978 8.83525C5.68429 8.72976 5.62503 8.58668 5.62503 8.4375V7.875H5.06253C4.91334 7.875 4.77027 7.81574 4.66478 7.71025C4.55929 7.60476 4.50003 7.46168 4.50003 7.3125C4.50003 7.16332 4.55929 7.02024 4.66478 6.91475C4.77027 6.80926 4.91334 6.75 5.06253 6.75H5.62503V6.1875C5.62503 6.03832 5.68429 5.89524 5.78978 5.78975C5.89527 5.68426 6.03834 5.625 6.18753 5.625C6.33671 5.625 6.47978 5.68426 6.58527 5.78975C6.69076 5.89524 6.75003 6.03832 6.75003 6.1875V6.75H7.31253C7.46171 6.75 7.60478 6.80926 7.71027 6.91475C7.81576 7.02024 7.87503 7.16332 7.87503 7.3125C7.87503 7.46168 7.81576 7.60476 7.71027 7.71025C7.60478 7.81574 7.46171 7.875 7.31253 7.875ZM10.125 7.3125C10.125 7.16332 10.1843 7.02024 10.2898 6.91475C10.3953 6.80926 10.5383 6.75 10.6875 6.75H12.375C12.5242 6.75 12.6673 6.80926 12.7728 6.91475C12.8783 7.02024 12.9375 7.16332 12.9375 7.3125C12.9375 7.46168 12.8783 7.60476 12.7728 7.71025C12.6673 7.81574 12.5242 7.875 12.375 7.875H10.6875C10.5383 7.875 10.3953 7.81574 10.2898 7.71025C10.1843 7.60476 10.125 7.46168 10.125 7.3125ZM16.0573 13.4627C15.9519 13.6144 15.8175 13.7437 15.6618 13.843C15.5061 13.9424 15.3322 14.0098 15.1503 14.0414C14.9301 14.0799 14.704 14.0656 14.4905 13.9997C14.2769 13.9339 14.0821 13.8183 13.9219 13.6624L11.7985 11.25H12.0938C12.8119 11.2501 13.5182 11.0669 14.1457 10.7177C14.7733 10.3685 15.3013 9.86486 15.6797 9.25453L16.2942 12.4186C16.3255 12.5997 16.3207 12.7851 16.28 12.9643C16.2394 13.1435 16.1637 13.3129 16.0573 13.4627Z" fill="#7D8091"/>
</svg>