<svg xmlns="http://www.w3.org/2000/svg" width="18" height="18" viewBox="0 0 18 18" fill="none">
  <path d="M6.19986 13.2C5.42988 13.2 4.8069 13.83 4.8069 14.6C4.8069 15.37 5.42988 16 6.19986 16C6.96983 16 7.59981 15.37 7.59981 14.6C7.59981 13.83 6.96983 13.2 6.19986 13.2ZM1.7 2C1.3134 2 1 2.3134 1 2.7C1 3.0866 1.3134 3.4 1.7 3.4H3.39995L5.91987 8.713L4.9749 10.428C4.8629 10.624 4.7999 10.855 4.7999 11.1C4.7999 11.87 5.42988 12.5 6.19986 12.5H13.8996C14.2862 12.5 14.5996 12.1866 14.5996 11.8C14.5996 11.4134 14.2862 11.1 13.8996 11.1H6.49385C6.39585 11.1 6.31885 11.023 6.31885 10.925L6.33985 10.841L6.96983 9.7H12.1847C12.7096 9.7 13.1716 9.413 13.4096 8.979L15.9155 4.436C15.9733 4.32917 16.0023 4.20919 15.9999 4.08777C15.9974 3.96635 15.9634 3.84766 15.9014 3.74327C15.8393 3.63889 15.7512 3.55239 15.6458 3.49222C15.5403 3.43206 15.421 3.40028 15.2995 3.4H4.9469L4.28892 2H1.7ZM13.1996 13.2C12.4296 13.2 11.8067 13.83 11.8067 14.6C11.8067 15.37 12.4296 16 13.1996 16C13.9696 16 14.5996 15.37 14.5996 14.6C14.5996 13.83 13.9696 13.2 13.1996 13.2Z" fill="#7D8091"/>
</svg>