<svg xmlns="http://www.w3.org/2000/svg" width="18" height="18" viewBox="0 0 18 18" fill="none">
  <path d="M9.67416 16.5H8.39139V15.3601C7.05556 15.2795 5.99126 14.9254 5.1985 14.2979C4.40574 13.6647 4.00624 12.85 4 11.8541H5.98502C6.03496 12.3837 6.27216 12.8212 6.69663 13.1667C7.1211 13.5121 7.68602 13.7222 8.39139 13.7971V9.71244L7.55805 9.51382C6.50936 9.27202 5.70412 8.86903 5.14232 8.30484C4.58677 7.73489 4.30899 7.03253 4.30899 6.19775C4.30899 5.2133 4.67104 4.41307 5.39513 3.79706C6.11923 3.1753 7.11798 2.80973 8.39139 2.70035V1.5H9.67416V2.70035C10.8914 2.79246 11.8683 3.15515 12.6049 3.78843C13.3477 4.41595 13.7347 5.20754 13.7659 6.16321H11.809C11.7903 5.67386 11.5843 5.25648 11.191 4.91105C10.7978 4.55987 10.2921 4.34686 9.67416 4.27202V8.13212L10.5449 8.31347C11.7122 8.58405 12.5799 8.99856 13.1479 9.55699C13.716 10.1097 14 10.8322 14 11.7245C14 12.7723 13.6223 13.6128 12.867 14.2461C12.1117 14.8794 11.0474 15.2478 9.67416 15.3515V16.5ZM12.015 11.8972C12.015 11.3849 11.8246 10.9704 11.4438 10.6537C11.0693 10.3313 10.4794 10.0924 9.67416 9.93696V13.823C10.417 13.7827 10.9913 13.5956 11.397 13.2617C11.809 12.922 12.015 12.4672 12.015 11.8972ZM6.31273 6.06822C6.31273 6.53454 6.49064 6.92026 6.84644 7.22539C7.20225 7.53051 7.71723 7.74928 8.39139 7.88169V4.27202C7.79214 4.30081 7.29588 4.48503 6.90262 4.8247C6.50936 5.15861 6.31273 5.57311 6.31273 6.06822Z" fill="#636574"/>
</svg>