<svg xmlns="http://www.w3.org/2000/svg" width="12" height="13" viewBox="0 0 12 13" fill="none">
  <path d="M4.53 1.46486C3.585 1.45986 2.665 2.36986 3.085 3.49986H1.5C1.23478 3.49986 0.98043 3.60522 0.792893 3.79276C0.605357 3.98029 0.5 4.23465 0.5 4.49986V5.49986C0.5 5.63247 0.552678 5.75965 0.646447 5.85342C0.740215 5.94719 0.867392 5.99986 1 5.99986H5.5V4.49986H6.5V5.99986H11C11.1326 5.99986 11.2598 5.94719 11.3536 5.85342C11.4473 5.75965 11.5 5.63247 11.5 5.49986V4.49986C11.5 4.23465 11.3946 3.98029 11.2071 3.79276C11.0196 3.60522 10.7652 3.49986 10.5 3.49986H8.915C9.5 1.86486 7.3 0.709864 6.285 2.11986L6 2.49986L5.715 2.10986C5.4 1.66486 4.965 1.46986 4.53 1.46486ZM4.5 2.49986C4.945 2.49986 5.17 3.03986 4.855 3.35486C4.54 3.66986 4 3.44486 4 2.99986C4 2.86726 4.05268 2.74008 4.14645 2.64631C4.24021 2.55254 4.36739 2.49986 4.5 2.49986ZM7.5 2.49986C7.945 2.49986 8.17 3.03986 7.855 3.35486C7.54 3.66986 7 3.44486 7 2.99986C7 2.86726 7.05268 2.74008 7.14645 2.64631C7.24021 2.55254 7.36739 2.49986 7.5 2.49986ZM1 6.49986V10.4999C1 10.7651 1.10536 11.0194 1.29289 11.207C1.48043 11.3945 1.73478 11.4999 2 11.4999H10C10.2652 11.4999 10.5196 11.3945 10.7071 11.207C10.8946 11.0194 11 10.7651 11 10.4999V6.49986H6.5V10.4999H5.5V6.49986H1Z" fill="#F6F4F9"/>
</svg>