<svg xmlns="http://www.w3.org/2000/svg" width="18" height="18" viewBox="0 0 18 18" fill="none">
  <path fill-rule="evenodd" clip-rule="evenodd" d="M8.18183 3.49148C8.16344 3.41581 8.14294 3.33921 8.12013 3.26318C8.0352 2.98006 7.93203 2.75249 7.82179 2.60869C7.72093 2.47713 7.6669 2.47724 7.64874 2.47727L7.6479 2.47727C7.60216 2.47727 7.48784 2.50333 7.30199 2.68318C7.12201 2.85735 6.94259 3.1122 6.77824 3.40224C6.7614 3.43196 6.74489 3.46173 6.72873 3.49148H8.18183ZM9.00018 1.9351C8.96701 1.88406 8.93197 1.8342 8.89496 1.78593C8.63294 1.44416 8.22222 1.125 7.6479 1.125C7.10203 1.125 6.66699 1.41588 6.36159 1.71144C6.05031 2.01268 5.79658 2.39171 5.60173 2.73555C5.45008 3.00318 5.32383 3.26796 5.22608 3.49148H2.57688C1.83004 3.49148 1.22461 4.09691 1.22461 4.84375V5.51989H16.7757V4.84375C16.7757 4.09691 16.1703 3.49148 15.4235 3.49148H12.7743C12.6765 3.26796 12.5503 3.00318 12.3986 2.73555C12.2038 2.39171 11.95 2.01268 11.6388 1.71144C11.3334 1.41588 10.8983 1.125 10.3525 1.125C9.77813 1.125 9.36742 1.44416 9.10539 1.78593C9.06838 1.8342 9.03335 1.88406 9.00018 1.9351ZM11.2221 3.40224C11.239 3.43196 11.2555 3.46173 11.2716 3.49148H9.81853C9.83691 3.41581 9.85741 3.33921 9.88022 3.26318C9.96515 2.98006 10.0683 2.75249 10.1786 2.60869C10.2794 2.47713 10.3335 2.47724 10.3516 2.47727L10.3525 2.47727C10.3982 2.47727 10.5125 2.50333 10.6984 2.68318C10.8783 2.85735 11.0578 3.1122 11.2221 3.40224ZM13.9719 15H9.67649V6.49998H16.0004V12.9716C16.0004 14.0918 15.0922 15 13.9719 15ZM2.00036 6.49998H8.32422V15H4.02876C2.9085 15 2.00036 14.0918 2.00036 12.9716V6.49998Z" fill="#636574"/>
  <path fill-rule="evenodd" clip-rule="evenodd" d="M8.18183 3.49148C8.16344 3.41581 8.14294 3.33921 8.12013 3.26318C8.0352 2.98006 7.93203 2.75249 7.82179 2.60869C7.72093 2.47713 7.6669 2.47724 7.64874 2.47727L7.6479 2.47727C7.60216 2.47727 7.48784 2.50333 7.30199 2.68318C7.12201 2.85735 6.94259 3.1122 6.77824 3.40224C6.7614 3.43196 6.74489 3.46173 6.72873 3.49148H8.18183ZM9.00018 1.9351C8.96701 1.88406 8.93197 1.8342 8.89496 1.78593C8.63294 1.44416 8.22222 1.125 7.6479 1.125C7.10203 1.125 6.66699 1.41588 6.36159 1.71144C6.05031 2.01268 5.79658 2.39171 5.60173 2.73555C5.45008 3.00318 5.32383 3.26796 5.22608 3.49148H2.57688C1.83004 3.49148 1.22461 4.09691 1.22461 4.84375V5.51989H16.7757V4.84375C16.7757 4.09691 16.1703 3.49148 15.4235 3.49148H12.7743C12.6765 3.26796 12.5503 3.00318 12.3986 2.73555C12.2038 2.39171 11.95 2.01268 11.6388 1.71144C11.3334 1.41588 10.8983 1.125 10.3525 1.125C9.77813 1.125 9.36742 1.44416 9.10539 1.78593C9.06838 1.8342 9.03335 1.88406 9.00018 1.9351ZM11.2221 3.40224C11.239 3.43196 11.2555 3.46173 11.2716 3.49148H9.81853C9.83691 3.41581 9.85741 3.33921 9.88022 3.26318C9.96515 2.98006 10.0683 2.75249 10.1786 2.60869C10.2794 2.47713 10.3335 2.47724 10.3516 2.47727L10.3525 2.47727C10.3982 2.47727 10.5125 2.50333 10.6984 2.68318C10.8783 2.85735 11.0578 3.1122 11.2221 3.40224ZM13.9719 15H9.67649V6.49998H16.0004V12.9716C16.0004 14.0918 15.0922 15 13.9719 15ZM2.00036 6.49998H8.32422V15H4.02876C2.9085 15 2.00036 14.0918 2.00036 12.9716V6.49998Z" fill="url(#paint0_linear_1002_961)"/>
  <defs>
    <linearGradient id="paint0_linear_1002_961" x1="9.00018" y1="1.125" x2="9.00018" y2="15" gradientUnits="userSpaceOnUse">
      <stop stop-color="#FF4D55"/>
      <stop offset="1" stop-color="#FF8D4D"/>
    </linearGradient>
  </defs>
</svg>