<svg xmlns="http://www.w3.org/2000/svg" width="20" height="20" viewBox="0 0 20 20" fill="none">
  <path d="M15.2734 10C15.2734 8.91118 14.7509 7.94517 13.9439 7.33835C13.5762 7.06178 13.0794 7.27005 12.9025 7.69488C12.7255 8.12005 12.9536 8.60177 13.2412 8.96141C13.4692 9.24649 13.6055 9.6088 13.6055 10.0039C13.6055 10.399 13.4677 10.7622 13.2374 11.0483C12.9497 11.4057 12.7245 11.8852 12.9008 12.3087C13.0783 12.7352 13.5779 12.9429 13.946 12.6638C14.7518 12.0532 15.2734 11.0879 15.2734 10ZM15.2516 4.21577C14.852 3.98688 14.3604 4.19235 14.1835 4.61748C14.0066 5.04238 14.2126 5.52476 14.6022 5.7699C16.0082 6.6548 16.9414 8.21829 16.9414 10C16.9414 11.785 16.0082 13.3461 14.6023 14.2302C14.2126 14.4753 14.0066 14.9576 14.1835 15.3825C14.3604 15.8077 14.852 16.0131 15.2516 15.7842C17.2566 14.6357 18.6055 12.4767 18.6055 10C18.6055 7.52329 17.2566 5.36432 15.2516 4.21577ZM2.94141 5.83203C2.38912 5.83203 1.94141 6.27975 1.94141 6.83203V13.1641C1.94141 13.7163 2.38912 14.1641 2.94141 14.1641H5.06623C5.1989 14.1641 5.32613 14.2168 5.4199 14.3106L10.2518 19.1458C10.5667 19.4609 11.1055 19.2379 11.1055 18.7923V1.20711C11.1055 0.761655 10.5669 0.538571 10.2519 0.853553L5.41988 5.68558C5.32612 5.77935 5.19894 5.83203 5.06633 5.83203H2.94141Z" fill="#7D8091"/>
</svg>