<svg xmlns="http://www.w3.org/2000/svg" width="191" height="127" viewBox="0 0 191 127" fill="none">
  <g filter="url(#filter0_d_1020_2139)">
    <mask id="path-1-inside-1_1020_2139" fill="white">
      <path d="M10 16C10 10.4772 14.4772 6 20 6H171C176.523 6 181 10.4772 181 16V103C181 108.523 176.523 113 171 113H20C14.4772 113 10 108.523 10 103V16Z"/>
    </mask>
    <path d="M10 16C10 10.4772 14.4772 6 20 6H171C176.523 6 181 10.4772 181 16V103C181 108.523 176.523 113 171 113H20C14.4772 113 10 108.523 10 103V16Z" fill="#FF4D55" fill-opacity="0.05" shape-rendering="crispEdges"/>
    <path d="M10 6H181H10ZM181 103C181 109.627 175.627 115 169 115H22C15.3726 115 10 109.627 10 103C10 107.418 14.4772 111 20 111H171C176.523 111 181 107.418 181 103ZM10 113V6V113ZM181 6V113V6Z" fill="#E30446" mask="url(#path-1-inside-1_1020_2139)"/>
  </g>
  <g filter="url(#filter1_f_1020_2139)">
    <circle cx="95.5" cy="63.5" r="23.5" fill="#E30446" fill-opacity="0.3"/>
  </g>
  <g opacity="0.1">
    <path d="M112.894 57.0401L111.599 59.4434L107.714 35.5957L101.609 43.3601V40.9568L95.4103 33.5622V16L85.8824 35.5957L86.9924 43.9146L79.4993 51.4017L78.6668 61.2921L79.4352 62.7778L72 59.2862L75.9687 77.3176L95.4106 90.3158L114.745 77.3754L119 53.7128L112.894 57.0401ZM92.3129 68.7289L91.6659 68.5747L91.4552 67.4735C91.9179 65.2124 91.6247 64.0227 90.402 61.9674C89.9049 58.6742 89.9097 56.8601 90.8947 53.7291C90.703 53.2678 90.7861 53.0824 91.1579 52.8459C90.9152 52.4635 90.9414 52.2434 91.4211 51.9627C91.065 51.5718 91.0622 51.3851 91.5114 51.1435L91.3197 50.6247C91.7218 50.3215 91.7439 50.1252 91.5829 49.7415L92.32 49.0764L93.5124 48.0465L93.5257 48.0724C93.7307 47.8863 93.9646 47.7271 94.224 47.6019C94.7075 47.2433 94.9036 46.8415 95.1195 46.0774L95.5737 45.9096L96.8482 47.6281C97.4873 47.9526 98.0103 48.5092 98.2782 49.2342C98.8434 50.7618 98.062 52.4581 96.5329 53.0225C96.4072 53.0691 96.2802 53.1062 96.1529 53.1348L96.2506 53.3229C96.2029 53.3906 96.1577 53.4549 96.1148 53.5158C95.6003 54.2446 95.395 54.5354 95.3779 55.2172L95.8893 56.6002C94.7222 58.0424 94.6346 58.863 95.7201 60.3963C94.2731 62.8707 94.6908 63.8026 97.9016 64.6997L97.9394 65.8649L97.5935 65.9929C97.982 72.4236 100.245 75.821 106.817 78.6999C100.122 79.2075 95.3493 75.6349 92.3129 68.7289Z" fill="#E30446"/>
  </g>
  <defs>
    <filter id="filter0_d_1020_2139" x="0" y="0" width="191" height="127" filterUnits="userSpaceOnUse" color-interpolation-filters="sRGB">
      <feFlood flood-opacity="0" result="BackgroundImageFix"/>
      <feColorMatrix in="SourceAlpha" type="matrix" values="0 0 0 0 0 0 0 0 0 0 0 0 0 0 0 0 0 0 127 0" result="hardAlpha"/>
      <feOffset dy="4"/>
      <feGaussianBlur stdDeviation="5"/>
      <feComposite in2="hardAlpha" operator="out"/>
      <feColorMatrix type="matrix" values="0 0 0 0 0 0 0 0 0 0 0 0 0 0 0 0 0 0 0.1 0"/>
      <feBlend mode="normal" in2="BackgroundImageFix" result="effect1_dropShadow_1020_2139"/>
      <feBlend mode="normal" in="SourceGraphic" in2="effect1_dropShadow_1020_2139" result="shape"/>
    </filter>
    <filter id="filter1_f_1020_2139" x="52" y="20" width="87" height="87" filterUnits="userSpaceOnUse" color-interpolation-filters="sRGB">
      <feFlood flood-opacity="0" result="BackgroundImageFix"/>
      <feBlend mode="normal" in="SourceGraphic" in2="BackgroundImageFix" result="shape"/>
      <feGaussianBlur stdDeviation="10" result="effect1_foregroundBlur_1020_2139"/>
    </filter>
  </defs>
</svg>