<svg xmlns="http://www.w3.org/2000/svg" width="24" height="24" viewBox="0 0 24 24" fill="none">
  <path fill-rule="evenodd" clip-rule="evenodd" d="M5.81452 3.77635C5.72642 3.58978 5.86252 3.375 6.06884 3.375H17.9312C18.1375 3.375 18.2736 3.58978 18.1855 3.77635L17.6169 4.98038C17.431 5.37395 17.0349 5.625 16.5996 5.625H7.40037C6.96513 5.625 6.56894 5.37395 6.38309 4.98038L5.81452 3.77635ZM1.26041 4.81256H5.01217L5.72195 6.51603C5.89663 6.93525 6.30625 7.20833 6.76041 7.20833H17.2396C17.6937 7.20833 18.1034 6.93525 18.278 6.51603L18.9878 4.81256H22.7396C22.8949 4.81256 23.0208 4.93848 23.0208 5.09381V16.9896C23.0208 17.145 22.8949 17.2709 22.7396 17.2709H1.26041C1.10508 17.2709 0.979162 17.145 0.979162 16.9896V5.09381C0.979162 4.93848 1.10508 4.81256 1.26041 4.81256ZM8.92708 10.0834C8.77175 10.0834 8.64583 10.2093 8.64583 10.3646V12.198C8.64583 12.3533 8.77175 12.4792 8.92708 12.4792H15.0729C15.2282 12.4792 15.3542 12.3533 15.3542 12.198V10.3646C15.3542 10.2093 15.2282 10.0834 15.0729 10.0834H8.92708ZM0.988337 18.375C0.747749 18.375 0.618225 18.6575 0.775215 18.8398L1.97588 20.2341C2.18959 20.4823 2.50085 20.625 2.82837 20.625H21.1716C21.4991 20.625 21.8104 20.4823 22.0241 20.2341L23.2248 18.8398C23.3818 18.6575 23.2522 18.375 23.0117 18.375H0.988337Z" fill="black"/>
  <path fill-rule="evenodd" clip-rule="evenodd" d="M5.81452 3.77635C5.72642 3.58978 5.86252 3.375 6.06884 3.375H17.9312C18.1375 3.375 18.2736 3.58978 18.1855 3.77635L17.6169 4.98038C17.431 5.37395 17.0349 5.625 16.5996 5.625H7.40037C6.96513 5.625 6.56894 5.37395 6.38309 4.98038L5.81452 3.77635ZM1.26041 4.81256H5.01217L5.72195 6.51603C5.89663 6.93525 6.30625 7.20833 6.76041 7.20833H17.2396C17.6937 7.20833 18.1034 6.93525 18.278 6.51603L18.9878 4.81256H22.7396C22.8949 4.81256 23.0208 4.93848 23.0208 5.09381V16.9896C23.0208 17.145 22.8949 17.2709 22.7396 17.2709H1.26041C1.10508 17.2709 0.979162 17.145 0.979162 16.9896V5.09381C0.979162 4.93848 1.10508 4.81256 1.26041 4.81256ZM8.92708 10.0834C8.77175 10.0834 8.64583 10.2093 8.64583 10.3646V12.198C8.64583 12.3533 8.77175 12.4792 8.92708 12.4792H15.0729C15.2282 12.4792 15.3542 12.3533 15.3542 12.198V10.3646C15.3542 10.2093 15.2282 10.0834 15.0729 10.0834H8.92708ZM0.988337 18.375C0.747749 18.375 0.618225 18.6575 0.775215 18.8398L1.97588 20.2341C2.18959 20.4823 2.50085 20.625 2.82837 20.625H21.1716C21.4991 20.625 21.8104 20.4823 22.0241 20.2341L23.2248 18.8398C23.3818 18.6575 23.2522 18.375 23.0117 18.375H0.988337Z" fill="url(#paint0_linear_1_2170)"/>
  <defs>
    <linearGradient id="paint0_linear_1_2170" x1="12" y1="3.375" x2="12" y2="20.625" gradientUnits="userSpaceOnUse">
      <stop stop-color="#FF4D55"/>
      <stop offset="1" stop-color="#FF8D4D"/>
    </linearGradient>
  </defs>
</svg>