<svg xmlns="http://www.w3.org/2000/svg" width="24" height="24" viewBox="0 0 24 24" fill="none">
  <path fill-rule="evenodd" clip-rule="evenodd" d="M11.4375 1.09188C11.6518 0.897761 11.9784 0.89776 12.1927 1.09187L13.6734 2.433C13.8188 2.56466 14.0222 2.6111 14.2103 2.55555L16.1263 1.9897C16.4036 1.9078 16.6979 2.04949 16.8067 2.31738L17.5589 4.16815C17.6328 4.34985 17.7959 4.47996 17.9895 4.51153L19.9613 4.83302C20.2466 4.87955 20.4503 5.13488 20.4321 5.42347L20.3068 7.41732C20.2945 7.61307 20.3851 7.8011 20.5458 7.91352L22.1828 9.05869C22.4197 9.22444 22.4924 9.54283 22.3508 9.79497L21.3728 11.537C21.2768 11.708 21.2768 11.9167 21.3728 12.0877L22.3508 13.8298C22.4924 14.0819 22.4197 14.4003 22.1828 14.566L20.5458 15.7112C20.3851 15.8236 20.2945 16.0117 20.3068 16.2074L20.4321 18.2013C20.4503 18.4898 20.2466 18.7452 19.9613 18.7917L17.9895 19.1132C17.7959 19.1448 17.6328 19.2749 17.5589 19.4566L16.8067 21.3074C16.6979 21.5752 16.4036 21.7169 16.1263 21.635L14.2103 21.0692C14.0222 21.0136 13.8188 21.0601 13.6734 21.1917L12.1927 22.5329C11.9784 22.727 11.6518 22.727 11.4375 22.5329L9.95675 21.1917C9.81138 21.0601 9.60792 21.0136 9.41982 21.0692L7.50384 21.635C7.22652 21.7169 6.93229 21.5752 6.82341 21.3074L6.07122 19.4566C5.99738 19.2749 5.83422 19.1448 5.64064 19.1132L3.66889 18.7917C3.3835 18.7452 3.17988 18.4898 3.19802 18.2013L3.32334 16.2074C3.33564 16.0117 3.2451 15.8236 3.08438 15.7112L1.4474 14.566C1.21046 14.4003 1.13779 14.0819 1.27934 13.8298L2.25735 12.0877C2.35337 11.9167 2.35337 11.708 2.25735 11.537L1.27934 9.79497C1.13779 9.54283 1.21046 9.22444 1.4474 9.05869L3.08438 7.91352C3.2451 7.8011 3.33564 7.61307 3.32334 7.41732L3.19802 5.42348C3.17988 5.13489 3.3835 4.87955 3.66889 4.83302L5.64064 4.51153C5.83422 4.47996 5.99738 4.34985 6.07122 4.16815L6.82341 2.31738C6.93229 2.04949 7.22652 1.9078 7.50384 1.9897L9.41982 2.55555C9.60792 2.6111 9.81138 2.56466 9.95675 2.433L11.4375 1.09188ZM18.7526 11.8124C18.7526 15.6438 15.6466 18.7499 11.8151 18.7499C7.9836 18.7499 4.87757 15.6438 4.87757 11.8124C4.87757 7.98089 7.9836 4.87486 11.8151 4.87486C15.6466 4.87486 18.7526 7.98089 18.7526 11.8124ZM12.0621 6.85628C11.9571 6.654 11.6678 6.654 11.5628 6.85628L10.1178 9.64108C10.077 9.71968 10.0015 9.77448 9.91419 9.78899L6.81914 10.3028C6.59432 10.3401 6.50491 10.6153 6.66485 10.7776L8.8668 13.0125C8.92896 13.0756 8.95777 13.1643 8.94457 13.2518L8.47678 16.3542C8.4428 16.5795 8.67689 16.7496 8.88071 16.6476L11.6866 15.2441C11.7659 15.2044 11.8591 15.2044 11.9383 15.2441L14.7442 16.6476C14.948 16.7496 15.1821 16.5795 15.1482 16.3542L14.6804 13.2518C14.6672 13.1643 14.696 13.0756 14.7581 13.0125L16.9601 10.7776C17.12 10.6153 17.0306 10.3401 16.8058 10.3028L13.7108 9.78899C13.6234 9.77448 13.548 9.71968 13.5072 9.64108L12.0621 6.85628Z" fill="url(#paint0_linear_1_2179)"/>
  <defs>
    <linearGradient id="paint0_linear_1_2179" x1="11.8151" y1="0.946289" x2="11.8151" y2="22.6784" gradientUnits="userSpaceOnUse">
      <stop stop-color="#FF4D55"/>
      <stop offset="1" stop-color="#FF8D4D"/>
    </linearGradient>
  </defs>
</svg>