<svg xmlns="http://www.w3.org/2000/svg" width="15" height="22" viewBox="0 0 15 22" fill="none">
  <path d="M8.51124 22H6.58708V20.3282C4.58333 20.2099 2.98689 19.6907 1.79775 18.7703C0.608614 17.8415 0.0093633 16.6467 0 15.186H2.97753C3.05243 15.9628 3.40824 16.6045 4.04494 17.1111C4.68165 17.6177 5.52903 17.9259 6.58708 18.0357V12.0449L5.33708 11.7536C3.76404 11.399 2.55618 10.8079 1.71348 9.98043C0.88015 9.1445 0.463483 8.11437 0.463483 6.89004C0.463483 5.44617 1.00655 4.2725 2.0927 3.36903C3.17884 2.45711 4.67697 1.92094 6.58708 1.76051V0H8.51124V1.76051C10.3371 1.89561 11.8024 2.42756 12.9073 3.35636C14.0215 4.27672 14.6021 5.43773 14.6489 6.83938H11.7135C11.6854 6.12167 11.3764 5.5095 10.7865 5.00288C10.1966 4.48781 9.4382 4.1754 8.51124 4.06563V9.72712L9.81742 9.99309C11.5684 10.3899 12.8698 10.9979 13.7219 11.8169C14.574 12.6275 15 13.6872 15 14.996C15 16.5327 14.4335 17.7655 13.3006 18.6943C12.1676 19.6231 10.5712 20.1635 8.51124 20.3155V22ZM12.0225 15.2493C12.0225 14.4978 11.7369 13.8898 11.1657 13.4254C10.6039 12.9526 9.7191 12.6022 8.51124 12.3742V18.0737C9.62547 18.0146 10.4869 17.7402 11.0955 17.2504C11.7135 16.7523 12.0225 16.0852 12.0225 15.2493ZM3.4691 6.70006C3.4691 7.384 3.73595 7.94972 4.26966 8.39724C4.80337 8.84475 5.57584 9.16561 6.58708 9.35982V4.06563C5.6882 4.10785 4.94382 4.37805 4.35393 4.87622C3.76404 5.36596 3.4691 5.9739 3.4691 6.70006Z" fill="url(#paint0_linear_1_2156)"/>
  <defs>
    <linearGradient id="paint0_linear_1_2156" x1="7.5" y1="0" x2="7.5" y2="22" gradientUnits="userSpaceOnUse">
      <stop stop-color="#FF4D55"/>
      <stop offset="1" stop-color="#FF8D4D"/>
    </linearGradient>
  </defs>
</svg>